<svg xmlns="http://www.w3.org/2000/svg" width="157" height="56" viewBox="0 0 157 56" fill="none">
  <g transform="translate(4, 4) scale(0.48)">
    <line x1="30" y1="15" x2="30" y2="50" stroke="#2c2722" stroke-width="5" stroke-linecap="round"/>
    <line x1="30" y1="50" x2="30" y2="85" stroke="#2c2722" stroke-width="5" stroke-linecap="round"/>
    <line x1="30" y1="50" x2="50" y2="50" stroke="#2c2722" stroke-width="5" stroke-linecap="round"/>
    <line x1="50" y1="50" x2="76" y2="20" stroke="#2c2722" stroke-width="5" stroke-linecap="round"/>
    <line x1="50" y1="50" x2="76" y2="80" stroke="#2c2722" stroke-width="5" stroke-linecap="round"/>
    <circle cx="30" cy="15" r="7" fill="#2c2722"/>
    <circle cx="30" cy="50" r="7" fill="#2c2722"/>
    <circle cx="30" cy="85" r="7" fill="#2c2722"/>
    <circle cx="50" cy="50" r="7" fill="#2c2722"/>
    <circle cx="76" cy="20" r="7" fill="#2c2722"/>
    <circle cx="76" cy="80" r="7" fill="#2c2722"/>
  </g>
  <g fill="#2c2722">
    <path d="M459 0 277 253.5H196L426.5 543H572L358.5 276L362 345.5L616 0ZM79 0V730H218V0Z" transform="translate(66.00, 41.27) scale(0.036000, -0.036000)"/><path d="M79 0V543H189V313H186Q186 429.5 236.0 489.75Q286 550 383 550H403V429H365Q294.5 429 256.25 391.25Q218 353.5 218 282.5V0Z" transform="translate(90.71, 41.27) scale(0.036000, -0.036000)"/><path d="M407.5 0V161H384.5V340Q384.5 386.5 361.5 409.75Q338.5 433 291 433Q266 433 231.0 432.0Q196 431 160.5 429.5Q125 428 97 426V544Q120 546 148.75 547.75Q177.5 549.5 208.25 550.25Q239 551 266 551Q349.5 551 405.25 528.75Q461 506.5 489.25 459.5Q517.5 412.5 517.5 336.5V0ZM232.5 -14Q173.5 -14 129.25 6.75Q85 27.5 60.5 66.75Q36 106 36 161Q36 220.5 65.25 258.75Q94.5 297 148.0 315.75Q201.5 334.5 273.5 334.5H399.5V251.5H271.5Q224 251.5 198.5 228.25Q173 205 173 167.5Q173 130.5 198.5 107.75Q224 85 271.5 85Q300.5 85 325.25 95.5Q350 106 366.25 131.25Q382.5 156.5 384.5 201L418.5 162Q413.5 105 391.0 66.0Q368.5 27 329.0 6.5Q289.5 -14 232.5 -14Z" transform="translate(108.22, 41.27) scale(0.036000, -0.036000)"/><path d="M188 0 18 543H161L323.5 0ZM229 0V114H375.5V0ZM284 0 424 543H558L411 0Z" transform="translate(131.87, 41.27) scale(0.036000, -0.036000)"/>
  </g>
</svg>
